<?xml version="1.0" standalone="no"?>
<!DOCTYPE svg PUBLIC "-//W3C//DTD SVG 20010904//EN"
 "http://www.w3.org/TR/2001/REC-SVG-20010904/DTD/svg10.dtd">
<svg version="1.0" xmlns="http://www.w3.org/2000/svg"
 width="500.000000pt" height="500.000000pt" viewBox="0 0 500.000000 500.000000"
 preserveAspectRatio="xMidYMid meet">
<metadata>
Created by potrace 1.11, written by Peter Selinger 2001-2013
</metadata>
<g transform="translate(0.000000,500.000000) scale(0.100000,-0.100000)"
fill="#000000" stroke="none">
<path d="M2011 4519 c-134 -16 -302 -73 -381 -129 -16 -11 -65 -31 -108 -44
-192 -58 -323 -128 -437 -235 -33 -32 -90 -80 -126 -109 -258 -202 -468 -569
-604 -1057 -18 -66 -40 -152 -49 -191 -14 -64 -29 -96 -129 -274 -11 -19 -40
-48 -65 -64 -59 -39 -102 -107 -102 -163 0 -49 43 -153 81 -197 13 -15 54 -53
91 -84 37 -30 66 -58 63 -60 -7 -7 -67 39 -128 97 -31 30 -57 51 -57 45 0 -25
81 -133 141 -188 114 -106 269 -196 491 -286 l107 -44 6 -55 c14 -120 30 -150
93 -172 52 -18 82 4 111 81 14 36 26 67 27 68 3 5 199 -81 370 -163 195 -93
299 -155 574 -340 305 -205 487 -295 752 -374 472 -140 923 -144 1567 -15 293
58 469 129 585 236 85 77 109 133 110 248 0 67 -6 99 -26 152 -44 117 -447
754 -533 842 l-47 49 -14 126 c-32 299 -94 536 -226 866 -167 416 -343 681
-576 867 -71 56 -269 180 -319 199 -13 5 -50 26 -81 48 -130 88 -365 183 -535
217 -45 9 -123 29 -172 44 -166 52 -330 73 -454 59z m-56 -50 c-11 -4 -28 -10
-38 -13 -10 -3 -15 -10 -12 -16 4 -6 -17 -10 -56 -10 -51 0 -60 2 -50 14 17
21 121 46 156 37 19 -4 19 -4 0 -12z m-355 -169 c0 -5 -17 -12 -37 -16 l-38
-7 35 -13 c32 -11 33 -13 9 -13 -14 -1 -60 -4 -102 -7 -47 -4 -77 -3 -77 3 0
21 28 45 60 53 50 11 150 12 150 0z m1588 -196 c100 -33 174 -79 242 -150 l55
-57 -65 45 c-36 24 -114 71 -175 103 -160 84 -161 85 -147 85 8 0 48 -12 90
-26z m30 -189 c47 -55 93 -109 101 -120 28 -36 -13 5 -56 56 -21 26 -72 84
-113 130 -41 46 -62 73 -46 59 15 -14 67 -70 114 -125z m297 -55 c10 -11 16
-20 13 -20 -3 0 -13 9 -23 20 -10 11 -16 20 -13 20 3 0 13 -9 23 -20z m196
-130 c122 -121 202 -237 289 -415 66 -135 92 -210 33 -95 -93 181 -250 396
-342 470 -23 17 -41 30 -41 27 0 -2 27 -61 61 -131 33 -70 59 -130 56 -132 -5
-6 -107 193 -107 209 0 7 -27 57 -59 110 -59 96 -59 97 -28 80 18 -10 80 -65
138 -123z m-341 0 c30 -43 18 -37 -16 7 -15 20 -23 33 -16 29 6 -3 21 -20 32
-36z m-2634 -152 c-32 -62 -64 -120 -72 -129 -25 -27 -93 -199 -134 -334 -22
-71 -55 -175 -74 -230 -53 -154 -120 -487 -127 -627 -2 -27 -4 -48 -6 -48 -1
0 -7 9 -13 20 -21 39 20 368 71 574 76 304 151 529 212 636 57 101 184 266
195 255 3 -3 -21 -56 -52 -117z m2675 95 c13 -16 12 -17 -3 -4 -17 13 -22 21
-14 21 2 0 10 -8 17 -17z m-3014 -1805 c24 -25 25 -28 8 -35 -11 -4 -20 -2
-23 5 -2 7 -9 9 -14 6 -6 -4 -8 -3 -5 3 4 5 -7 23 -23 38 -17 16 -30 33 -30
37 0 13 57 -22 87 -54z m4187 -313 c163 -124 253 -204 275 -241 l23 -39 -34
31 c-18 17 -62 52 -98 78 -36 25 -70 50 -76 55 -5 4 -28 16 -50 27 -21 10 -50
25 -63 33 -13 8 -31 16 -39 17 -8 2 -19 9 -23 16 -11 17 -12 91 -1 86 4 -1 43
-30 86 -63z"/>
</g>
</svg>
